<svg width="184" height="39" viewBox="0 0 184 39" fill="none" xmlns="http://www.w3.org/2000/svg">
<path d="M20.332 10.5114C20.2941 10.0095 20.19 9.56912 20.0195 9.19033C19.8491 8.80207 19.6076 8.47537 19.2951 8.21022C18.9826 7.9356 18.5943 7.732 18.1303 7.59942C17.6758 7.45738 17.1407 7.38635 16.5252 7.38635C15.1994 7.38635 13.9921 7.70359 12.903 8.33806C11.814 8.97253 10.9002 9.88635 10.1616 11.0795C9.4324 12.2727 8.9305 13.7121 8.65588 15.3977C8.37179 17.1023 8.34812 18.5606 8.58486 19.7727C8.8216 20.9848 9.33296 21.9129 10.1189 22.5568C10.9144 23.2007 11.9892 23.5227 13.3434 23.5227C14.5555 23.5227 15.6019 23.3475 16.4826 22.9971C17.3633 22.6468 18.0688 22.1496 18.5991 21.5057C19.1294 20.8617 19.4608 20.1042 19.5934 19.2329L20.957 19.375H14.3093L15.2184 13.75H28.1161L27.4627 17.7841C27.0271 20.4356 26.0896 22.7036 24.6502 24.5881C23.2203 26.4631 21.44 27.9025 19.3093 28.9062C17.1786 29.9006 14.8396 30.3977 12.2922 30.3977C9.47028 30.3977 7.08865 29.7964 5.14736 28.5937C3.20607 27.3911 1.81876 25.6771 0.985427 23.4517C0.161563 21.2263 0.000578463 18.5795 0.502472 15.5114C0.9002 13.1061 1.6199 10.9754 2.66156 9.11931C3.7127 7.26325 4.99584 5.69601 6.511 4.4176C8.02615 3.12972 9.69755 2.15908 11.5252 1.50567C13.3529 0.842792 15.2468 0.511353 17.207 0.511353C18.921 0.511353 20.4788 0.757565 21.8803 1.24999C23.2818 1.73294 24.4797 2.42423 25.4741 3.32385C26.4684 4.214 27.2118 5.26988 27.7042 6.49147C28.2061 7.71306 28.4097 9.05302 28.315 10.5114H20.332Z" fill="black"/>
<path d="M41.8839 0.909081L37.0543 30H29.2134L34.043 0.909081H41.8839Z" fill="black"/>
<path d="M56.788 20.4545L58.8334 8.18181H66.6743L63.038 30H55.5948L56.2766 25.8523H56.0493C55.377 27.2443 54.3732 28.3333 53.038 29.1193C51.7122 29.8958 50.235 30.2841 48.6062 30.2841C47.0815 30.2841 45.8079 29.9337 44.7851 29.2329C43.7624 28.5322 43.038 27.5663 42.6118 26.3352C42.1857 25.1042 42.1005 23.6932 42.3562 22.1023L44.6857 8.18181H52.5266L50.4812 20.4545C50.3202 21.5341 50.4575 22.3816 50.8931 22.9971C51.3382 23.6127 52.0531 23.9204 53.038 23.9204C53.6914 23.9204 54.2785 23.7831 54.7993 23.5085C55.3297 23.2244 55.7653 22.8267 56.1062 22.3153C56.4565 21.7945 56.6838 21.1742 56.788 20.4545Z" fill="black"/>
<path d="M67.0259 30L70.6623 8.18181H78.2759L77.5941 12.3295H77.8214C78.4748 10.7954 79.2939 9.67329 80.2787 8.96306C81.2636 8.25283 82.3384 7.89772 83.5032 7.89772C83.8441 7.89772 84.1708 7.92613 84.4833 7.98295C84.8053 8.03029 85.1225 8.09658 85.435 8.18181L84.2986 14.8864C83.9293 14.7443 83.47 14.6449 82.9208 14.5881C82.3715 14.5218 81.8839 14.4886 81.4577 14.4886C80.7001 14.4886 79.9899 14.6638 79.327 15.0142C78.6736 15.3551 78.1149 15.8381 77.6509 16.4631C77.1964 17.0786 76.8933 17.803 76.7418 18.6364L74.8668 30H67.0259Z" fill="black"/>
<path d="M92.2674 38.6364C90.0704 38.6364 88.2428 38.3239 86.7844 37.6989C85.3356 37.0833 84.2655 36.2311 83.5742 35.142C82.8924 34.0625 82.6083 32.822 82.7219 31.4204H90.2787C90.2977 31.8939 90.435 32.2727 90.6907 32.5568C90.9464 32.8409 91.3015 33.0445 91.756 33.1676C92.2106 33.2907 92.7409 33.3523 93.3469 33.3523C94.3697 33.3523 95.2551 33.1013 96.0032 32.5994C96.7513 32.107 97.2106 31.2216 97.381 29.9432L98.006 26.25H97.7787C97.381 26.9886 96.846 27.6184 96.1736 28.1392C95.5013 28.6506 94.7295 29.0435 93.8583 29.3182C92.9871 29.5833 92.0591 29.7159 91.0742 29.7159C89.5212 29.7159 88.1528 29.3561 86.9691 28.6364C85.7949 27.9167 84.9426 26.7756 84.4123 25.2131C83.8914 23.6506 83.8394 21.6098 84.256 19.0909C84.6916 16.4583 85.4587 14.3182 86.5572 12.6704C87.6556 11.0227 88.9198 9.81533 90.3498 9.04828C91.7797 8.28124 93.2144 7.89772 94.6537 7.89772C95.7333 7.89772 96.6471 8.08711 97.3952 8.4659C98.1433 8.83522 98.7399 9.33238 99.185 9.95738C99.6301 10.5729 99.9378 11.25 100.108 11.9886H100.279L100.904 8.18181H108.745L105.108 29.9432C104.824 31.7992 104.1 33.3712 102.935 34.6591C101.78 35.9564 100.283 36.9413 98.4464 37.6136C96.6187 38.2954 94.5591 38.6364 92.2674 38.6364ZM94.881 24.1477C95.6007 24.1477 96.2541 23.9489 96.8412 23.5511C97.4284 23.1439 97.9255 22.5663 98.3327 21.8182C98.7399 21.0606 99.0287 20.1515 99.1992 19.0909C99.3697 18.0114 99.3791 17.0881 99.2276 16.321C99.0761 15.5445 98.7778 14.9526 98.3327 14.5454C97.8876 14.1288 97.3053 13.9204 96.5856 13.9204C95.8659 13.9204 95.2172 14.1288 94.6395 14.5454C94.0619 14.9526 93.5742 15.5445 93.1765 16.321C92.7787 17.0881 92.4947 18.0114 92.3242 19.0909C92.1537 20.1704 92.1395 21.089 92.2816 21.8466C92.4236 22.5947 92.7125 23.1676 93.1481 23.5653C93.5837 23.9536 94.1613 24.1477 94.881 24.1477Z" fill="black"/>
<path d="M119.494 30.3977C117.164 30.3977 115.233 29.9526 113.698 29.0625C112.164 28.1629 111.085 26.875 110.46 25.1989C109.835 23.5132 109.721 21.4962 110.119 19.1477C110.498 16.8939 111.279 14.9242 112.463 13.2386C113.656 11.553 115.157 10.2415 116.966 9.30397C118.784 8.36647 120.82 7.89772 123.073 7.89772C124.721 7.89772 126.165 8.1534 127.406 8.66476C128.656 9.17613 129.674 9.9195 130.46 10.8949C131.246 11.8703 131.776 13.0492 132.051 14.4318C132.335 15.8049 132.335 17.3579 132.051 19.0909L131.767 20.9091H112.278L112.96 16.5909H125.233C125.327 15.9659 125.266 15.4167 125.048 14.9432C124.84 14.4602 124.503 14.0862 124.039 13.821C123.585 13.5464 123.036 13.4091 122.392 13.4091C121.748 13.4091 121.142 13.5464 120.573 13.821C120.015 14.0956 119.537 14.4792 119.139 14.9716C118.751 15.464 118.49 16.0417 118.358 16.7045L117.505 21.25C117.392 21.9507 117.434 22.5757 117.633 23.125C117.832 23.6742 118.178 24.1051 118.67 24.4176C119.163 24.7301 119.797 24.8864 120.573 24.8864C121.104 24.8864 121.606 24.8153 122.079 24.6733C122.562 24.5218 122.988 24.304 123.358 24.0199C123.736 23.7263 124.039 23.3712 124.267 22.9545H131.426C130.914 24.4697 130.105 25.786 128.997 26.9034C127.898 28.0114 126.544 28.8731 124.934 29.4886C123.334 30.0947 121.52 30.3977 119.494 30.3977Z" fill="black"/>
<path d="M143.83 30.3977C141.5 30.3977 139.569 29.9526 138.034 29.0625C136.5 28.1629 135.421 26.875 134.796 25.1989C134.171 23.5132 134.057 21.4962 134.455 19.1477C134.834 16.8939 135.615 14.9242 136.799 13.2386C137.992 11.553 139.493 10.2415 141.301 9.30397C143.12 8.36647 145.156 7.89772 147.409 7.89772C149.057 7.89772 150.501 8.1534 151.742 8.66476C152.992 9.17613 154.01 9.9195 154.796 10.8949C155.582 11.8703 156.112 13.0492 156.387 14.4318C156.671 15.8049 156.671 17.3579 156.387 19.0909L156.103 20.9091H136.614L137.296 16.5909H149.569C149.663 15.9659 149.602 15.4167 149.384 14.9432C149.176 14.4602 148.839 14.0862 148.375 13.821C147.921 13.5464 147.372 13.4091 146.728 13.4091C146.084 13.4091 145.478 13.5464 144.909 13.821C144.351 14.0956 143.873 14.4792 143.475 14.9716C143.087 15.464 142.826 16.0417 142.694 16.7045L141.841 21.25C141.728 21.9507 141.77 22.5757 141.969 23.125C142.168 23.6742 142.514 24.1051 143.006 24.4176C143.498 24.7301 144.133 24.8864 144.909 24.8864C145.44 24.8864 145.942 24.8153 146.415 24.6733C146.898 24.5218 147.324 24.304 147.694 24.0199C148.072 23.7263 148.375 23.3712 148.603 22.9545H155.762C155.25 24.4697 154.441 25.786 153.333 26.9034C152.234 28.0114 150.88 28.8731 149.27 29.4886C147.67 30.0947 145.856 30.3977 143.83 30.3977Z" fill="black"/>
<path d="M165.666 24.8295L167.257 15.5114H168.279L174.814 8.18181H183.62L172.882 19.6023H170.666L165.666 24.8295ZM157.768 30L162.598 0.909081H170.439L165.609 30H157.768ZM171.234 30L167.654 21.3636L173.734 15.7954L180.211 30H171.234Z" fill="black"/>
</svg>
